<svg width="26" height="25" viewBox="0 0 26 25" fill="none" xmlns="http://www.w3.org/2000/svg">
<path d="M16.5281 14.1211C16.3232 14.0174 15.3255 13.5305 15.139 13.4611C14.9525 13.3946 14.8171 13.3599 14.6812 13.5648C14.5484 13.7645 14.1571 14.2218 14.0375 14.3551C13.918 14.4885 13.8005 14.4987 13.5986 14.4083C13.3938 14.3046 12.7393 14.0915 11.9623 13.3946C11.3553 12.8546 10.9512 12.1895 10.8311 11.9846C10.7116 11.7823 10.8179 11.6678 10.919 11.5667C11.012 11.4737 11.1239 11.3327 11.2276 11.2101C11.3262 11.0875 11.3579 11.0052 11.4299 10.8724C11.4963 10.7288 11.4621 10.6169 11.4115 10.5158C11.3609 10.4146 10.9538 9.41172 10.7836 9.0122C10.6212 8.61575 10.451 8.66633 10.3259 8.66633C10.2089 8.6556 10.073 8.6556 9.93759 8.6556C9.8022 8.6556 9.58098 8.70618 9.39451 8.90032C9.20803 9.10519 8.6813 9.59462 8.6813 10.5847C8.6813 11.5774 9.41034 12.5379 9.5115 12.6814C9.61521 12.8143 10.9456 14.8578 12.9866 15.7361C13.4735 15.9409 13.8515 16.0636 14.1468 16.1647C14.6337 16.319 15.0782 16.2975 15.4292 16.247C15.8175 16.1831 16.6318 15.7545 16.8025 15.2758C16.9757 14.794 16.9757 14.395 16.9251 14.3046C16.8745 14.2116 16.7417 14.161 16.5368 14.0706L16.5281 14.1211ZM12.8267 19.1396H12.816C11.6077 19.1396 10.4132 18.8122 9.36998 18.2001L9.12526 18.054L6.5708 18.7192L7.25744 16.2337L7.09242 15.9782C6.41776 14.9055 6.05985 13.6641 6.0599 12.3969C6.0599 8.68778 9.09614 5.66227 12.8318 5.66227C14.6414 5.66227 16.3391 6.36731 17.6163 7.64454C18.2464 8.26711 18.7462 9.00892 19.0865 9.8267C19.4268 10.6445 19.6009 11.5218 19.5986 12.4076C19.5935 16.1141 16.5598 19.1396 12.8292 19.1396H12.8267ZM18.5875 6.67333C17.0334 5.17232 14.9898 4.32373 12.816 4.32373C8.33236 4.32373 4.68151 7.95874 4.67896 12.426C4.67896 13.8524 5.0514 15.2441 5.76461 16.4759L4.60999 20.6723L8.92602 19.5468C10.1217 20.1915 11.4581 20.5305 12.8165 20.5339H12.819C17.3052 20.5339 20.956 16.8989 20.9586 12.4285C20.9586 10.2654 20.1151 8.22951 18.5773 6.69939L18.5875 6.67333Z" fill="white"/>
</svg>
