<svg width="30" height="30" viewBox="0 0 30 30" fill="none" xmlns="http://www.w3.org/2000/svg">
<path d="M19.58 16.9856C19.3294 16.8587 18.1087 16.2631 17.8806 16.1781C17.6525 16.0969 17.4869 16.0544 17.3206 16.305C17.1581 16.5494 16.6794 17.1087 16.5331 17.2719C16.3869 17.435 16.2431 17.4475 15.9962 17.3369C15.7456 17.21 14.945 16.9494 13.9944 16.0969C13.2519 15.4362 12.7575 14.6225 12.6106 14.3719C12.4644 14.1244 12.5944 13.9844 12.7181 13.8606C12.8319 13.7469 12.9688 13.5744 13.0956 13.4244C13.2163 13.2744 13.255 13.1737 13.3431 13.0112C13.4244 12.8356 13.3825 12.6988 13.3206 12.575C13.2587 12.4513 12.7606 11.2244 12.5525 10.7356C12.3537 10.2506 12.1456 10.3125 11.9925 10.3125C11.8494 10.2994 11.6831 10.2994 11.5175 10.2994C11.3519 10.2994 11.0812 10.3612 10.8531 10.5988C10.625 10.8494 9.98062 11.4481 9.98062 12.6594C9.98062 13.8737 10.8725 15.0487 10.9962 15.2244C11.1231 15.3869 12.7506 17.8869 15.2475 18.9612C15.8431 19.2119 16.3056 19.3619 16.6669 19.4856C17.2625 19.6744 17.8062 19.6481 18.2356 19.5862C18.7106 19.5081 19.7069 18.9838 19.9156 18.3981C20.1275 17.8088 20.1275 17.3206 20.0656 17.21C20.0037 17.0962 19.8412 17.0344 19.5906 16.9237L19.58 16.9856ZM15.0519 23.125H15.0387C13.5606 23.125 12.0994 22.7244 10.8231 21.9756L10.5237 21.7969L7.39875 22.6106L8.23875 19.57L8.03688 19.2575C7.21154 17.9452 6.77369 16.4265 6.77375 14.8762C6.77375 10.3387 10.4881 6.6375 15.0581 6.6375C17.2719 6.6375 19.3488 7.5 20.9113 9.0625C21.682 9.82412 22.2935 10.7316 22.7098 11.732C23.1262 12.7325 23.3391 13.8058 23.3363 14.8894C23.33 19.4237 19.6187 23.125 15.055 23.125H15.0519ZM22.0994 7.87437C20.1981 6.03812 17.6981 5 15.0387 5C9.55375 5 5.0875 9.44687 5.08438 14.9119C5.08438 16.6569 5.54 18.3594 6.4125 19.8663L5 25L10.28 23.6231C11.7427 24.4117 13.3776 24.8265 15.0394 24.8306H15.0425C20.5306 24.8306 24.9969 20.3837 25 14.915C25 12.2688 23.9681 9.77812 22.0869 7.90625L22.0994 7.87437Z" fill="white"/>
</svg>
