<svg width="36" height="36" viewBox="0 0 36 36" fill="none" xmlns="http://www.w3.org/2000/svg">
<path d="M28.4026 20.9322L23.8175 18.9664C22.8178 18.5331 21.6397 18.8213 20.9599 19.6645L19.6787 21.2287C17.5878 20.0263 15.8364 18.2754 14.636 16.228L16.2025 14.9449C17.0387 14.2622 17.3273 13.0912 16.9038 12.0943L14.9273 7.44896C14.4529 6.36571 13.2772 5.77459 12.1319 6.03934L7.87126 7.02267C6.75626 7.27761 5.9765 8.25673 5.9765 9.40349C5.9765 20.6982 15.1608 29.8825 26.4555 29.8825C27.6023 29.8825 28.5814 29.1032 28.7948 27.9901L29.7781 23.7253C30.0882 22.5757 29.4905 21.3991 28.4026 20.9322ZM27.6368 23.2201L26.6521 27.4882C26.6302 27.5395 26.5536 27.6414 26.4551 27.6414C16.3977 27.6414 8.21729 19.461 8.21729 9.40353C8.21729 9.30576 8.27785 9.22918 8.37343 9.20729L12.6383 8.22302C12.6529 8.21938 12.6682 8.21791 12.6828 8.21791C12.7637 8.21791 12.8396 8.2668 12.8717 8.33973L14.8393 12.9309C14.8743 13.0134 14.851 13.1097 14.781 13.1673L12.504 14.993C12.1013 15.3227 11.9787 15.8866 12.2078 16.3536C13.7491 19.4927 16.3288 22.0733 19.4684 23.6141C19.8933 23.8432 20.4998 23.7207 20.8299 23.3179L22.6981 21.0361C22.7498 20.9705 22.8469 20.9456 22.9279 20.9836L27.5158 22.9488C27.6042 23.0286 27.6555 23.1267 27.6368 23.2201Z" fill="#83AF38"/>
</svg>
